<?xml version="1.0" standalone="no"?><!DOCTYPE svg PUBLIC "-//W3C//DTD SVG 1.1//EN" "http://www.w3.org/Graphics/SVG/1.1/DTD/svg11.dtd"><svg t="1596530191803" class="icon" viewBox="0 0 1126 1024" version="1.1" xmlns="http://www.w3.org/2000/svg" p-id="20220" xmlns:xlink="http://www.w3.org/1999/xlink" width="219.921875" height="200"><defs><style type="text/css"></style></defs><path d="M377.453 810.892c14.448 0 27.993 2.71 41.538 8.127s24.381 12.642 34.314 22.575c9.933 9.03 17.157 20.77 22.575 33.411s8.127 26.187 8.127 40.635-2.709 27.993-8.127 40.635c-5.418 12.642-12.642 24.381-22.575 33.411s-21.672 17.157-34.314 22.575c-12.642 5.418-26.187 8.127-41.538 8.127-15.35 0-28.896-2.709-41.538-8.127-12.642-5.418-23.478-13.545-33.41-22.575s-17.158-20.769-22.576-33.41c-5.418-12.643-8.127-26.188-8.127-40.636s2.71-27.993 8.127-40.635c5.418-12.642 12.642-24.38 22.575-33.41s20.77-17.158 33.411-22.576c12.642-5.418 27.09-8.127 41.538-8.127z m474.977 2.71c14.448 0 27.993 2.708 41.538 8.126 13.545 5.418 24.381 12.642 34.314 22.575 9.933 9.03 17.157 20.77 22.575 33.411 5.418 12.642 8.127 26.187 8.127 40.635s-2.709 27.993-8.127 40.635c-5.418 12.642-13.545 24.381-22.575 33.411-9.933 9.03-20.769 17.157-34.314 22.575-13.545 5.418-27.09 8.127-41.538 8.127-14.448 0-27.993-2.709-41.538-8.127-12.642-5.418-24.38-13.545-33.41-22.575-9.933-9.03-17.157-20.769-22.575-33.41-5.418-12.643-8.127-26.188-8.127-40.636s2.709-27.993 8.127-40.635c5.418-12.642 13.544-24.38 22.574-33.41 9.933-9.03 20.77-17.158 33.411-22.576 13.545-5.418 27.09-8.127 41.538-8.127z m192.339-646.547c21.672 0 37.926 2.709 49.665 8.127 11.739 5.418 19.866 12.642 25.284 20.769 4.515 8.127 7.224 17.157 7.224 27.09 0 9.03-1.806 18.06-3.612 24.38-2.71 7.225-7.224 20.77-14.448 42.441-7.224 21.672-15.351 44.247-24.381 69.531l-27.09 75.852c-9.03 25.284-15.351 45.15-19.866 59.598-9.933 30.702-22.575 51.47-37.926 63.21-15.35 11.739-34.314 18.06-55.986 18.06h-599.59l17.156 102.039h575.21c36.12 0 55.083 15.35 55.083 46.956 0 15.35-3.612 27.993-10.836 38.829-7.224 10.835-21.672 16.253-42.44 16.253h-598.69c-15.35 0-27.993-3.612-37.926-9.933-9.933-7.223-18.963-15.35-25.284-27.09-7.224-10.835-12.642-22.574-16.254-36.12s-7.223-25.283-9.932-36.12c-0.903-4.514-2.71-15.35-6.321-33.41-3.612-17.157-7.224-38.83-12.642-65.016s-10.836-55.083-16.254-87.59-11.74-65.017-18.06-97.525c-14.448-76.755-30.702-161.636-48.762-255.548H62.307c-11.74 0-20.77-2.71-28.896-8.127-7.224-5.418-13.545-12.642-18.963-20.77S6.321 86.689 4.515 77.659 1.806 60.5 1.806 52.374c0-15.351 5.418-27.993 15.351-37.926S41.537 0 58.695 0h115.584c15.35 0 27.09 2.709 36.12 7.224s16.254 9.933 21.672 17.157c5.418 7.224 9.03 14.448 11.739 21.672s4.515 14.448 5.418 18.963c1.806 6.32 2.709 14.448 4.515 25.284 1.805 10.836 2.708 22.575 4.514 33.41 2.71 13.546 4.515 27.994 7.224 43.345h779.288z" fill="#409eff" p-id="20221"></path></svg>