<?xml version="1.0" standalone="no"?><!DOCTYPE svg PUBLIC "-//W3C//DTD SVG 1.1//EN" "http://www.w3.org/Graphics/SVG/1.1/DTD/svg11.dtd"><svg t="1596530226582" class="icon" viewBox="0 0 1024 1024" version="1.1" xmlns="http://www.w3.org/2000/svg" p-id="20346" xmlns:xlink="http://www.w3.org/1999/xlink" width="200" height="200"><defs><style type="text/css"></style></defs><path d="M263.558 896.977c0 35.767 28.995 64.762 64.762 64.762s64.762-28.995 64.762-64.762-28.995-64.762-64.762-64.762-64.762 28.995-64.762 64.762z m453.332 0c-0.023 35.767 28.954 64.78 64.721 64.803 35.767 0.023 64.78-28.954 64.803-64.721v-0.082c0-35.767-28.995-64.762-64.762-64.762s-64.762 28.995-64.762 64.762z m181.95-141.86H380.746c-27.755 0-55.51-24.671-61.678-52.426l-92.517-545.849c-9.252-52.426-58.594-92.517-111.02-92.517H93.944c-12.336 0-24.671 12.336-24.671 24.671s12.336 24.671 24.671 24.671h21.587c27.755 0 55.51 24.671 61.678 52.426l92.517 545.849c9.252 52.426 58.594 92.517 111.02 92.517H898.84c12.336 0 24.671-12.336 24.671-24.671 0-12.335-9.252-24.67-24.671-24.671z m-24.671-564.352H322.152c-12.336 0-24.671 12.336-24.671 24.671 0 12.336 12.336 24.671 24.671 24.671h552.017c24.671 0 37.007 15.419 30.839 40.091L837.162 551.58c-6.168 30.839-40.091 55.51-70.93 58.594L383.83 637.93c-12.336 0-24.671 12.336-21.587 27.755 0 12.336 12.336 24.671 27.755 21.587L772.4 659.517c52.426-3.084 101.768-46.258 114.104-95.601l67.846-271.382c12.336-52.426-24.671-101.769-80.181-101.769z" p-id="20347"></path></svg>