<?xml version="1.0" standalone="no"?><!DOCTYPE svg PUBLIC "-//W3C//DTD SVG 1.1//EN" "http://www.w3.org/Graphics/SVG/1.1/DTD/svg11.dtd"><svg t="1596530299259" class="icon" viewBox="0 0 1033 1024" version="1.1" xmlns="http://www.w3.org/2000/svg" p-id="21839" xmlns:xlink="http://www.w3.org/1999/xlink" width="201.7578125" height="200"><defs><style type="text/css"></style></defs><path d="M421.3582504 90.34035235H154.92448337a64.77794797 64.77794797 0 0 0-64.60566641 64.60566642v266.39069622a64.77794797 64.77794797 0 0 0 64.60566641 64.60566642h266.43376703a64.73487717 64.73487717 0 0 0 64.60566641-64.60566642V154.94601877a64.60566641 64.60566641 0 0 0-64.60566641-64.60566641z m21.5352224 330.99636264a21.53522242 21.53522242 0 0 1-21.5352224 21.53522242H154.92448337a21.53522242 21.53522242 0 0 1-21.53522241-21.53522242V154.94601877a21.53522242 21.53522242 0 0 1 21.53522241-21.53522241h266.43376703a21.53522242 21.53522242 0 0 1 21.5352224 21.53522241v266.39069622z m-21.5352224 116.93625595H154.92448337a64.77794797 64.77794797 0 0 0-64.60566641 64.60566642v266.17534387a64.60566641 64.60566641 0 0 0 64.60566641 64.60566641h266.43376703a64.60566641 64.60566641 0 0 0 64.60566641-64.60566641V602.87863736a64.60566641 64.60566641 0 0 0-64.60566641-64.60566642z m21.5352224 330.78101029a21.53522242 21.53522242 0 0 1-21.5352224 21.53522241H154.92448337a21.53522242 21.53522242 0 0 1-21.53522241-21.53522241V602.87863736a21.53522242 21.53522242 0 0 1 21.53522241-21.53522242h266.43376703a21.53522242 21.53522242 0 0 1 21.5352224 21.53522242v266.17534387zM877.345042 90.34035235H610.86820417a64.77794797 64.77794797 0 0 0-64.6056656 64.60566642v266.39069622a64.77794797 64.77794797 0 0 0 64.6056656 64.60566642h266.39069705a64.73487717 64.73487717 0 0 0 64.60566641-64.60566642V154.94601877a64.60566641 64.60566641 0 0 0-64.60566641-64.60566641z m21.5352224 330.99636264a21.53522242 21.53522242 0 0 1-21.53522241 21.53522242H610.86820417a21.53522242 21.53522242 0 0 1-21.5352216-21.53522242V154.94601877a21.53522242 21.53522242 0 0 1 21.5352216-21.53522241h266.39069705a21.53522242 21.53522242 0 0 1 21.53522241 21.53522241v266.39069622z m-21.53522241 116.93625595H610.86820417a64.77794797 64.77794797 0 0 0-64.6056656 64.60566642v266.17534387a64.60566641 64.60566641 0 0 0 64.6056656 64.60566641h266.39069705a64.60566641 64.60566641 0 0 0 64.60566641-64.60566641V602.87863736a64.60566641 64.60566641 0 0 0-64.60566641-64.60566642z m21.53522241 330.78101029a21.53522242 21.53522242 0 0 1-21.53522241 21.53522241H610.86820417a21.53522242 21.53522242 0 0 1-21.5352216-21.53522241V602.87863736a21.53522242 21.53522242 0 0 1 21.5352216-21.53522242h266.39069705a21.53522242 21.53522242 0 0 1 21.53522241 21.53522242v266.17534387z" p-id="21840"></path></svg>