<?xml version="1.0" standalone="no"?><!DOCTYPE svg PUBLIC "-//W3C//DTD SVG 1.1//EN" "http://www.w3.org/Graphics/SVG/1.1/DTD/svg11.dtd"><svg t="1596530823620" class="icon" viewBox="0 0 1024 1024" version="1.1" xmlns="http://www.w3.org/2000/svg" p-id="16565" xmlns:xlink="http://www.w3.org/1999/xlink" width="200" height="200"><defs><style type="text/css"></style></defs><path d="M 148.41 106.992 l 282.176 0 c 22.2631 0 40.3111 18.0481 40.3111 40.3111 l 0 282.176 c 0 22.2631 -18.0481 40.3111 -40.3111 40.3111 L 148.41 469.79 c -22.2631 0 -40.3111 -18.0481 -40.3111 -40.3111 L 108.099 147.302 C 108.099 125.039 126.147 106.992 148.41 106.992 Z" fill="#1296db" p-id="16566"></path><path d="M 147.556 553.478 L 429.731 553.478 c 22.2631 0 40.3111 18.0481 40.3111 40.3111 l 0 282.176 c 0 22.2631 -18.0481 40.3111 -40.3111 40.3111 L 147.556 916.276 c -22.2631 0 -40.3111 -18.0481 -40.3111 -40.3111 L 107.245 593.789 C 107.246 571.526 125.293 553.478 147.556 553.478 Z" fill="#1296db" p-id="16567"></path><path d="M 593.927 106.992 l 282.176 0 c 22.2631 0 40.3111 18.0481 40.3111 40.3111 l 0 282.176 c 0 22.2631 -18.0481 40.3111 -40.3111 40.3111 L 593.927 469.79 c -22.2631 0 -40.3111 -18.0481 -40.3111 -40.3111 L 553.616 147.302 C 553.616 125.039 571.664 106.992 593.927 106.992 Z" fill="#1296db" p-id="16568"></path><path d="M 730.22 920.502 L 623.926 920.502 c -40.9251 0 -74.2204 -33.3874 -74.2204 -74.4251 L 549.706 623.992 c 0 -41.0376 33.3874 -74.424 74.4251 -74.424 l 222.085 0 c 41.0376 0 74.424 33.2268 74.424 74.0669 L 920.64 737.868 c 0 10.2433 -8.30413 18.5474 -18.5474 18.5474 s -18.5474 -8.30413 -18.5474 -18.5474 L 883.545 623.635 c 0 -20.3873 -16.7464 -36.9731 -37.3302 -36.9731 L 624.131 586.661 c -20.5848 0 -37.3312 16.7464 -37.3312 37.3302 l 0 222.085 c 0 20.5848 16.6543 37.3312 37.1266 37.3312 l 106.294 0 c 10.2433 0 18.5474 8.30413 18.5474 18.5474 C 748.766 912.199 740.463 920.502 730.22 920.502 Z" fill="#1296db" p-id="16569"></path></svg>