<?xml version="1.0" standalone="no"?><!DOCTYPE svg PUBLIC "-//W3C//DTD SVG 1.1//EN" "http://www.w3.org/Graphics/SVG/1.1/DTD/svg11.dtd"><svg t="1596530061705" class="icon" viewBox="0 0 1024 1024" version="1.1" xmlns="http://www.w3.org/2000/svg" p-id="16885" xmlns:xlink="http://www.w3.org/1999/xlink" width="200" height="200"><defs><style type="text/css"></style></defs><path d="M681.81333333 956.10666667h-40.10666666V675.68c0-30.93333333-34.77333333-61.33333333-70.08-61.33333333H451.52c-35.41333333 0-70.08 30.4-70.08 61.33333333v280.42666667H341.33333333V675.68c0-58.02666667 58.13333333-101.44 110.18666667-101.44H571.73333333c52.05333333 0 110.18666667 43.41333333 110.18666667 101.44v280.42666667z" fill="#333303" p-id="16886"></path><path d="M825.70666667 976.16h-628.26666667c-48.74666667 0-88.32-44.90666667-88.32-100.16000001V375.2h40.10666667v500.79999999c0 32.53333333 22.08 60.05333333 48.21333333 60.05333334h628.26666667c26.13333333 0 48.21333333-27.52 48.21333333-60.05333334V375.2h40.10666667v500.79999999c0 55.14666667-39.68 100.16-88.32 100.16000001z" fill="#333303" p-id="16887"></path><path d="M972.26666667 461.92c-4.48 0-8.96-1.49333333-12.69333334-4.58666668L538.88 110.24c-27.30666667-22.18666667-27.30666667-22.18666667-54.72 0.10666667L63.57333333 457.33333332c-8.53333333 7.04-21.12 5.76-28.16-2.66666666-7.04-8.53333333-5.86666667-21.12 2.66666667-28.15999999L458.77333333 79.30666666c43.94666667-35.73333333 61.65333333-35.73333333 105.49333334-0.10666667L985.06666667 426.4c8.53333333 7.04 9.70666667 19.62666667 2.66666666 28.15999999-3.94666667 4.90666667-9.70666667 7.36-15.46666666 7.36000001z" fill="#333303" p-id="16888"></path></svg>